<svg xmlns="http://www.w3.org/2000/svg" width="385" height="385" xmlns:v="https://vecta.io/nano"><path d="M187 212l5 2 7 1v4l7 2v2l2 1 4 3v2l8-1 3 3 5 1 1 6h4v2h3l3 5v2l-1 7 1 3h-2l-1 2-1 3 1 4-3 1-1 2-4-1 2-4 1-2-1-3v3h-4v-2h-2l-2-3h-5v-2h-2l1 4 7-1-2 9-1 1 3 1v2l-2 1-3 7h-2l1 4-5 4-4-2-6-7v-2h-2l-2-5-6-2-2-4-3-1 2-3 2-1 1-3 5-1 6 3 5-1 1-4h-5v-2l-5-2v-3h-2v-5h2l-2-2-2-2v-2l6-2-2-2-2-1v-3l-7-3v-2h-4l2-6-3-2v-2z" fill="#f7b374"/><path d="M177 164h3l3 8 4 4-1 7-4 8-4 2-7 1-4-1v2l-9-1-1 5-1 9-5 11h-2v9h-3l-2 5-6 7h-2l-1 3v-3h-2l-1 4-2 4-4 1-4 1 1-4-3-1 1-3 3 1 1-2h3l-1 3h-2v2l5-5 1-2h-5v-2l3-2-4-2 1-4-1-4 1-4-1 3-5 3-4-1 3-3h2l1-10 4-5 6-1-1 4-2 2-2 5h2l2-4 2-6-1-3 3-1 3 6v-8l6-3 1-5 4-2 2 1 2-1-4-5 1-2h2l3 3v-2l4-1 1 1 1-4 5-2-3-2 3-1v-2l8-4 2-4z" fill="#90b654"/><path d="M192 158h2l4 6-4 2 2 4-1 4 3-3 4-2 6-2 1 4 3 1 1 4-1 2 4-1h2l2-3 2 1 1-5 2 3-2 5 3 3h2l1 3 4-4 2 1-1-5 3-3 3-3h3l8 1 2 1v7l-2 6v1l-5 5-1 4-5-3v4h-2l-2 9-3 1v-5l-3-1-2 4-6-1 1-3-5-2-4 2-1-3 2-5-1-5-4-1-1 3-4-3-6-1-2-5-1-3-5-1-2-1-2-3-5-2-2-5 1-3 4 2 1-3 4-2z" fill="#f2ad68"/><path d="M153 103h3l1 9 3 1-2 1v8l2 4-1 9-3 9-1 7h1l2 8v2l9-3-2 3-5 3-1 2 2 5h-6l1-5-2 3-2 3h-4l-1-5 3-6-1-1-3-1-2 4-4-2-1-4-4-2-2-2-5-1v-1h6l-2-4v-4h2l-1-12 5-10 1-3h2l2-4 1-4h2l1-3 4-2z" fill="#739f27"/><path d="M165 204h5l4 6h2l1 2 6 1 6 4-3 6 4-1 1 2 7 4-1 3h4v3l-5 3 2 2 1 3h-2v5h2l4 4 3 1 3 2 1 4-5 2-5-2-8-1-1 4-3 2-3-1 2-4 1-2h2l-5-7-3 1-2 2-1-3 1-2-5 1v-2l-4 2-2-4h-3v-2l-3 1-1-3-4-1-2-3 1-2-1-3-3-3 1-6 5 1 1 2 3 1 1 6 2 1-1 4h-2l1 2h3l1-2 2-3 4 1v-6l-2-2 3-4v5l1-3 1-1-1-4 4-1 1-2-5 2-5-1-4 2-3-5h3l-1-3-5-3v-2l4-1z" fill="#f0c491"/><path d="M156 101h12l2 4 7 1 4 9 2 5v11l4 2-2 10h-2l-1 6-2 5h-2l-2 4-2 4-5 2v-3l2-4h2l2-5 5-12 1-2h-2v-2l-2 1-2 5-7 7-11 5-3-1 1-9 4-14-1-6-1-6 1-5-2-4v-6l-2-1z" fill="#8aab3d"/><path d="M274 181l3 2 5-2 1 5 2 1v3l1-4 4-1-4 10-1 2h-2v-4l-3 1v-2h-2l-1 2 1 1-1 2 1 2h2v6l-4 1-2 4-3 3-4 1-2 4-6 2h-10l-5-2-8-2-3-3-4-1-3-3v-2l-7-2v-2l-5-1-7-5v-2l-4-2-2-4-3-2v-2h7l4 3v-3l6 2 1 6 1 2h-3v4l2-3 5 2v2h2v2l5 1 2-4 2 1 1 2-2 1 3 6v3l10 1 1-9 2-5h3l1 2 1-7 4 2 1 3h4v-3-1h5l-1-3 3-3h2v-2l2-2z" fill="#d2874d"/><path d="M182 189l7 1 3 2v2h2l5 6 7 2 6 4v2h6v2l5 2 13 5 8 2h15l9-3h3v2l3-1 3 2-2 1-4 1-1 3 2 2h-2l-2 4v4h-2l-1 2h-2l-1 2 2 1-1 2-9-3-11-5-8-5-9-6-10-5-6-5-13-6-3-1-1 2-2-1v-2l-7-1-7-3-7-1-2-2-4-2h3v-2h9l5-2z" fill="#7e350e"/><path d="M248 254l2 2-1 4 3 2-1 5-9 12-6 5-5 5-7 5-4 4h-7l-10-3 2 5 9 3v2h7v4l9 1v1h-9l-11-3-8-6-3-3-2-4v-5h-2l1-3 3 2-1-6 5 1 5 2 5-1 3-2v-4h2l1-4 2-4h2v-2l-4-1 3-9h-6l-1-4h2v2l6-1 1 4h4l1 1 1-4 2 2 1 5-4 2 3 3 2-4 1 4 2-1 5 2-1-1-4-4 3-4h3l1-5z" fill="#e99757"/><path d="M183 123l1 4 1-2h7l13 4 11 4 9 3 1 3 5 3v5h-3-5l-1 2-3 4h-3v2l2 2-3 1-1 2-8 1v-2l-3 1 1-4-9-7-2 3h-3l-4 1-2 2v2h-2l-1 2-1 1-1 4-3 2h-4v-4l2-1 4-8 3-4 2-6h2l1-10-4-2z" fill="#e3b173"/><path d="M116 189l4 1 3-1v2l2 1-1 1 3 3-4 3 5-2 7 3 1 1 3 3v9l-2-3-2-5-2 1 1 4-2 5-3 3h-2l2-7h2v-3l-2-1-1 2h-2l-3 4-2 10h-2l-1 3 7-2 1-4 2 1-2 6v2l2 1h-3l4 4 2 2-5 1 5 2-2 5-4 2v-2l3-3h-3l-1 3-3-1-1 2 4 1-2 4h-3l-10-7-3-11-1-1v-11l1-6 1-5 2-6 1-4 6-8z" fill="#739f27"/><path d="M288 200l4 2 2 2 6 3 3 2-1 4v2h-2l1 3h-5l1 8-2 4h3v3h-3v2h-2l-1 3h-3l1-6-5 5 1 4v3h-5l-2 5-2 2-1 3h-2l-2-4-9-8-1-6 6-2-1-5 3-3-2-7h8l-5-1-1-3 11-7z" fill="#ab5e2b"/><path d="M73 177h5l-2 2h-3v3l7 1h2v2h4v2l5-2v6l-4 1v-2h3v-2l-6 1 1 6 1-2h4v2l4-2-2-4 3-3 7-1 3 1-1 4 2 1-2 2-2 1 3 1 2-3 4 1 1 2-3 6-2-1v5l-2 4h-3l-1 2-2-2h-2l-1 3-4-2v-2h-2v-2l-5-1-3-1h-4v-2l-3-1v-2l-7 1-5-8-5 1-3-4h-3v9h2l3 5v2h2l2 6 3 12 1 3 2 2h-2l-1 2-4-9-2-9-6-9-3-6v-7l4-4 7-4 10-4z" fill="#f5c58d"/><path d="M204 219l9 2 5 2v2h3v-2l7 1 1 4 6 2 6 1 9 4 9 4 6 4 8 7v5h-5l-4 4-4 1v-2l-6 1-1 3-4-1-3-2h4l-2-4-4 3-1 3-4 2v3l4 3-1 2-5-2-2 1-2-2 2-3-1-5 3-3h2v-2l-2-1 2-7-2-1v-3l-1-3h-3v-2h-4l-1-6h-6v-3h-10v-2l-5-2-1-4h-2z" fill="#e58b4b"/><path d="M283 191l1 3-1 3h2l2-5 3-1 1 3 5 3v2l3-1 4 1 4 4v3l2 4 3 3-1 3 2 7 2-2 1 2 2-1v4h-2l1 6-4 2 1 2h-4l-2-4-1 5h-2l-1 4h-2v-3l-2 3-6 3-2 3h-2l-2 4-2-1 1-2-5 3-1 3h-1l-1-6 2-5 5 1-2-7 5-6 2 2-1 4h2l1-2h2v-2h3v-3h-3l1-8-1-2 1-2 4-1v-2h2l-1-5v-2l-5-2-4-2v-2l-4-1-7 8-11 7-4 1 1-3 4-3 5-5 4-1v-6l-3 1-1-7 4-1v2z" fill="#b97948"/><path d="M125 151l9 1 5 5 1-2 1 6 3 1 2-4 3 1 2-2-1 6-2 6 2 2h2l3-6 2 1-2 5 4-1 3 2-2 6-4 2v2l3 1-1 3h-3v2l-3-1v-2h-2l1 4 4 3-5 2h-4l-2 7-8 1-2 1v-2l-8-1 1-2-4 2-3-1 6-3-4-3 2-1-1-3h-2l-1 2-3-2 7-6h6 2l1-1-2-2 2-2 1 1 2-2 5-5 1-5-1-2-5 1v-3l2-1-3-1-1 2-2-3 2-2-2-3-2 3-6-4z" fill="#4f7e0d"/><path d="M193 148l5 2 4 3v2l4 2-2 2h2v2l4-1h4l1-3v-2l1-3h3l3-4 1 5 1 3 3 1-2 4h3l1 3-3 3h4v-3l7 1-1 3 2 1h-3l4 1 2 1-3 2-1 2-2 1v5h-3l-3 4-4-4-3-3 2-6-2 3h-2l-3 4-5-1-1-5-5-2 2-1v-3l-6 3-2 2-5 2v-6l-3-2 1-2 2 1 2-2-3-3v-2h-2l-1 2-4 2-2 5-4-5-1 3-1-5v-2l5-1-1-3 4-3 6-1z" fill="#f4c78c"/><path d="M293 194l9 2 7 3 3 6 9 5 5 4 2 5-1 9-12 11-11 8-12 6-5 3-10 3h-3l-2 4-2 10-5 9-9 8-4 2 2-4 3-2 1-5 5-1 4-12v-5l1-1v-6l4-1 1-4 2 1-1 2h2l1-5h3l1 2 4-3h2l1 2 2-3h2l2-4 6-3 3-3 1 2-1 1 2-3h2l1-5 3 1-1 3h4l-3-2 1-5 2 3h3l-1-6h2l-1-3-5 1-2-10v-3l-3-1-2-5 1-1-2-2-1-3h-7l-2-2z" fill="#b77e54"/><path d="M138 107h7l1 3h-2l-1 5-2 3h-2l-1 5-4 8v12h-2l2 5v3l-4-2-7-1v-2l-4 2-2-3 1-2h-3l-2-2v-3h4l-1-2-4 1-1-3 2-6 5-4 4-1-2-1 2-2v-7h2l1-3 6-2z" fill="#f1bc72"/><path d="M55 188l4 4 4-1 5 8 7-1 2 2-1 1 2 1v2l6-1 2 2 4 1v2l5 2 1 1 3-3 6 1 1-9 2-2 2 7-3 6v7l-3 11-4-1-1-7-6-1-6-4-1-2-2-1-1-5-5 1-4-2-5-1-5-5-3-2v2h2l1 9 1 5h2l1 3 3 1-4 3 4-2 4-1v4l2 1-2 4-7 1v2l-3-1-1-4-4-13-1-8h-2l-3-4v-3h-2l-1-6 1-3z" fill="#f2ae66"/><path d="M275 153l7 1 12 11 1 4-7-3-12 1v2l3 3-6-1v-2l-2 1 1 2h-3l-1 2-1-2-4 5h-2v2h-2v2h-2l-2 5h-2l-1 5 1 2h-2l1 9-2 1v-4h-3l-1 5-1 9-2 1-7-1-2-1-4-10h3v4l2-1 2-7 1-2h2v-4l5 2-2-3h3l2-4 4-9 1-6-7-2v-3l11-3h10l4-2 14-1-8-3 1-2z" fill="#f09450"/><path d="M119 149l8 1-2 1 2 4h2l1 2 2-3 1 3 2 1-2 3h2l4 1-3 3h7l-1 7-2 3h-2l-1 3-5 2 3 2-5 3v-2l-7 2-2 1-1-6-6-2-2-1v-8l3 4v-6l1-2-6-1 1-2h4l1-4-3 1v-3l-5 1-2-4 6-3z" fill="#6d9d24"/><path d="M153 229l4 2 1 4v3l4 2 2 2 6 1 1 4 4-1 5 1 1 3 1-2 4 1 5 7v2h-3l-2 6-3-1-1-2-9 1 3-6h-2l-1-2-2 1-3-1v8l2 1 3 6 5 7-2 1-5-4-5-8-5-4-6-1-1 3-3-4 1-1-6-1 1-6h2 1l3-1h-2l-1-3 4-2-2-5v-5h2l-1-3z" fill="#deae77"/><path d="M120 111h4v2h-2l1 7-1 2 2 2-7 2-2 4-2 1v4h3 2l-1 4-4 1 1 2-5 2 2 1-5 1-3 5-7 1-3 1-1-2-3 1-1 7h3v2l8 1-4 2-10-5v-9l3-7 8-10 1-2h2l2-4 5-3 13-10z" fill="#f6ca89"/><path d="M107 174l2 1 1 3 7 2v2h4v5l-5 2 1 3-6 7-2-2h2l-1-4-4 1-1 2-2 1v-2l-2-1 3-3v-3l1-2h-8l-4 1 1 5 1 2h-2l-1 3v-2h-2v-2l-5 2-1-6 6-1v2h-3l3 1v-5l-4 1v-2h-4v-2l-7 1-3-3 1-2 6-3 1-1z" fill="#efb272"/><path d="M225 137l6 2 5 3 12 2 1 1 12 1 10 3 8 3v2h-3l4 3 8 4v1l-17 1-5 2h-9l-11 3-2 4-2-1v-2h-3v-2l3-3-2-1 5 1 4 1-1-5-2-1 1-4 2 2 8 1 2-2h1 3l2-5-11-2h-23v2l-3 1v-4h-2l1 3h-3l-1-4 5-1h2l1-4-8-2z" fill="#f5c083"/><path d="M288 165l5 2 1 4-3 1v7l-3 3-3-1v-3h-2l-1-4 3-3-3-1-3 5-2 5h-3l-1-2-1 6v3h-2v2h-2l-2 6-4 2-1 3-4-1-5-5 1 3-3-1 2-4v-3l1-3h2l1-4 3-1v-2h2v-2l3-3 4-3h2l1-2h2v2h5l-3-2 1-3z" fill="#cf7233"/><path d="M226 148h2l1 3h2v-2l3-1h21l11 2-3 6-2 2-2 2-7-2-5-1 1 2h1v6l-7-1-1 3h-2l1 3-5 1 1-5-5-1-1 3-4-1 1-4-5-1 4-3v-2l-5-5 3-3 2 2z" fill="#f2ad68"/><path d="M105 233h2l1 8-2 2H91l10 3 5 3 9 2h3l4 3 9 2 10 6v1h-8l-16-4-15-2-9-4-10-5 1-8 8-1z" fill="#debda6"/><path d="M187 177l3 1v3l4-1 4 5 1 2 3 2 3 5 2 1v2l5 2 3 3 6 2v2l3-1v2h2l1 4 7 2 4 3 10 2 1 2-9-1-15-5-9-5-4-1-4-4-3-2-7-2v-2l-4-2v-2l-4-1-1-2-6-2 2-6z" fill="#ac5e1a"/><path d="M172 253l2 1v2h2l-1 4-1 2 3 7 3-1 3-3 5 5v3h2l4 9 5 4v3l-3-1-1 2h2l2 8-5-2-8-8-4-4-5-2v-2l-2-1 2-2-4-7-4-6-2-2v-6l1-2z" fill="#f2c593"/><path d="M151 240l3 1 1 6-4 1v2l3-1-2 4-1 1-2-1-1-1-1 4 6 1 1 4 4-2 6 3v2l4 2 1 3-5 1-9-3-1-2-9-2-10-6-6-3-1-4 3-7 10 2h4 3l1-2h2z" fill="#c59e6a"/><path d="M172 203h2v2h5l1 2 7 2 3-1 7 1 6 1 7 3 6 3 17 9 4 5-3 1v-2l-3 1v-2h-2l-1-3-5-1-2-1v2h-3v-2l-5-1h-3l-5-2-2 1-4-2v-4h-3l-1 2v-2h-6l-2-2-4 1-7-2v-2l-3 1-3-7z" fill="#ca7d40"/><path d="M250 267l2 4h5l2-1 1 3 4 2-2 4h-5l-1 5-3-1-1 3-1-3h-4l1 3-3 1-1 3v-2l-3 3v3l-5 1-3 2-7-4 5-5 4-2 1-3 7-6z" fill="#8d3a12"/><path d="M61 199l4 2 5 6 1 5 3 3 4 4 2 5 5 4 9 1v2l5 1 1 2-1 3-7 3h-5l-3-6 1-2h-5l-2-2-1 2-5-1-5 1 1-3 7-2v-4-4l-3 3-6 1-1-2 5-2h-3v-4h-2l-2-7v-7h-2z" fill="#f3994b"/><path d="M247 283h4l1 2 1-2 5 1-2 4-6 5-5-1v3h-5l-1 3-10 3v2l11-4 1 5-8 4-3-1v-1h-7l-3-3v-2l-3 1-4-2v-2l9-2 2-3 5 1 5 2 4-3 3-1v-3l3-2 3-2z" fill="#a65122"/><path d="M69 207l6 3 2 2 8 4 5 1 5 3 4 1 2 7 3 1 1-2 2 6-6 3h-2l-1-4-4-1v-2h-9l-6-4-2-8h-4l-2-4-2-3z" fill="#d97d31"/><path d="M161 210l6 1 1 2-3 3 2 3h2l2-2 5 1 5-1-1 3-2 1v2l2 2h-4l1 3h-2l-1-3v3l2 2-2 6-5 1v3l-4-1-2 1v-3h2l-1-5-1-6-4-1-2-1v-2l2-2-1-7z" fill="#f1d3a8"/><path d="M177 136h2v2h2l-2 7-6 12-3 3 1 3 2 1v3h-4v-2l-6 2-1 3h-2l-2-5 4-4 2-1-6 1-2-7 13-7 6-6z" fill="#97bd60"/><path d="M157 193l11 3 4 2 8 2 11 4v2l6-1 14 7 1 2-7-2-5-2h-7l-4-1-3 1-8-3-4-2v-2l-7 1-1-2h-6l-2 6-4 7-1-3 2-4 1-9 1-3z" fill="#915c1a"/><path d="M138 263h6l8 4 7 3 6 3 5 1 1 2 4 1v3h2v2l6 2 5 5 3 4-5-2-8-6-1 2v-3l-10-2-1-1-11-2v-2l-4-2-5-3-2-1v-2h-2z" fill="#decec8"/><path d="M109 140l2 2 4-1 4 2-1 3h3 2v2h8l1 3-13-1-9 2-3 2 2 2-1 1h-5v3l-2 1-1 3-4-1-5-2v-2h-3l1-7 4-2v3l4-2 6-1 2-5 4-1z" fill="#ebaf5b"/><path d="M286 286l2 1v2l-8 7-5 1-9 6-9 4-5 2-8 3h-20v-1l21-3 11-6 5-5 3-3 4-1 8-3 4-3z" fill="#e8dfe4"/><path d="M110 156h3l1 2h3l-1 5h-5l5 2v8l-2 1-1-1-1 4 6 2 2 1v2h-3v-2l-7-1-2-4-6-2-3-5-2-4h3l1-4h2v-3z" fill="#93b84b"/><path d="M160 202h6l-4 2-4 7-3 9-4 2 2 1-1 5-1 3 1 3-1 5v4h-2l-1 3-4-1-2-1-1 3v-2h-8v-5h5l2-4h2l2-4 2-4 2-1 1-8 2-1 1-3h2l2-6z" fill="#a18e37"/><path d="M268 254h4l-1 3-3-1 1 7-1 5-4 12-5 2-3 1-1-2h2v-2l5-1 1-3-4-2-1-2-4 1-3-3 1-7 2-4h6 4z" fill="#a65122"/><path d="M182 260l2 3 7 1v3l2 1 5 3 2 5h2l8 10-2 1-10-4-1 2-5-5-2-4v-3h-2l-3-6-3-1-4 4-3-2-1-6 5-1z" fill="#cf8b4a"/><path d="M108 240l5 5 8 5 7-3 1 5v2l6 2 10 6 10 2 1 4-6-1-16-8-6-3-10-2v-2h-3l-11-3-9-4-6-2v-1h17z" fill="#a7855c"/><path d="M270 273l2 1-1 9-5 3-1 2-4 2-5 7-3 3h-2v2l9-3-2 3h-2l-1 2-6 3-8 3h-9l2-2 10-4 6-8 5-5 4-5 6-5 3-6z" fill="#c4aca7"/><path d="M281 168l5 2-3 5v3h2l1 3 4-2v-7l4-1 1-3h1l1 8-2-1v-3h-2l-1 4h3l-1 7-2 5-4 3 1-5h-3v5l-2-2-3-5 1-3-4 2-2 2-2-3-3 2 1-8 4 3 3-5zm6 23zm-1 1z" fill="#b97948"/><path d="M295 250l6 3 1 3-6 2-1-2-8 5-12 6-2 4-1 2h-2l1-10 3-4 13-4zm-26 23zm-1 1z" fill="#c4aca7"/><path d="M165 165h4v2l7-1v3l-3 4-7 2v2l-2 1 4 3-6 2-2 4-2-4-2-1v-2l4-3 2-10z" fill="#739f27"/><path d="M254 290l2 1-4 5-4 4-4 5-10 4-2-1 4-3 4-1-1-4-10 4-2-1 1-3 6-1 5-2 1-2h5v-3h6z" fill="#b86a38"/><path d="M64 230l7 1 5-1h2l8 1-1 4 3 3-1 2h-6l-15-5z" fill="#f5c58d"/><path d="M203 295l10 2 4 4 5 1 1 3h8l1 5h-9l-2-1v-4h-7v-2l-6-1-5-5z" fill="#b86a38"/><path d="M166 201l3 2-4 1v2l-4 1 1 3-2 4-1-1 1 6 1 2-7 3 2 1h-2v9 3l-3 3-1-5 1-2-1-3 2-6-1-2 4-4 4-11 3-4h4z" fill="#c59e6a"/><path d="M293 172h2l2 3 2 3v9l-5 3-1 5-3-1-1-4 3-3 1-8h2v-3h-3z" fill="#b77e54"/><path d="M70 206h5l5 2h3l3 4h2l-1 5-6-2-6-3-2-2-3-2z" fill="#f3994b"/><path d="M182 170l6 1 5 5 3 1 3 4-1 4-4-4-6-1v-3l-3-1v-2l-3-2zm14 15l2 1z" fill="#d2874d"/><path d="M156 267l6 1 7 1 5 6 4 4h-3v-2l-5-1v-2h-5l-9-5z" fill="#a7855c"/></svg>